<svg width="23" height="23" viewBox="0 0 23 23" fill="none" xmlns="http://www.w3.org/2000/svg">
<g clip-path="url(#clip0_149_844)">
<path d="M17.9747 13.9347L20.9406 15.6528C21.2985 15.8593 21.509 16.2212 21.509 16.6346V20.0451C21.509 20.4585 21.3024 20.82 20.9406 21.0269L17.9779 22.7493C17.8056 22.8507 17.6094 22.9042 17.4095 22.9042C17.2096 22.9042 17.0133 22.8507 16.8411 22.7493L13.8784 21.0269C13.5205 20.8204 13.31 20.4585 13.31 20.0451V16.8415L6.39994 12.8494L7.76083 14.8646L6.0556 15.8464C5.88334 15.9478 5.68709 16.0013 5.48719 16.0013C5.28729 16.0013 5.09104 15.9478 4.91878 15.8464L1.95611 14.1247C1.59816 13.9182 1.3877 13.5563 1.3877 13.1429V9.73244C1.3877 9.31902 1.59423 8.9575 1.95611 8.75061L4.91878 7.0282C5.09104 6.92678 5.28729 6.8733 5.48719 6.8733C5.68709 6.8733 5.88334 6.92678 6.0556 7.0282L7.53676 7.8894L8.84575 8.64716L13.32 6.06355V2.85998C13.32 2.44656 13.5265 2.08504 13.8884 1.87815L16.855 0.155021C17.0273 0.0536042 17.2235 0.00012207 17.4234 0.00012207C17.6233 0.00012207 17.8196 0.0536042 17.9918 0.155021L20.9545 1.87743C21.3125 2.08396 21.5229 2.44584 21.5229 2.85926V6.25254C21.5229 6.66596 21.3164 7.02748 20.9545 7.23437L17.9918 8.95678C17.8196 9.0582 17.6233 9.11168 17.4234 9.11168C17.2235 9.11168 17.0273 9.0582 16.855 8.95678L15.3739 8.09558L15.288 8.04403L16.8378 5.73603L9.58597 9.92143V12.9353L14.0602 15.5189L15.3692 14.7611L16.8504 13.8999C17.2083 13.7281 17.6253 13.7281 17.97 13.9343L17.9747 13.9347Z" fill="white"/>
</g>
<defs>
<clipPath id="clip0_149_844">
<rect width="22.9082" height="22.9082" fill="white"/>
</clipPath>
</defs>
</svg>
